<svg xmlns="http://www.w3.org/2000/svg" class="league" viewBox="0 0 100 72">
<path d= "M 1.80644 9.75049 C 0.655032 11.8373 0 14.2271 0 16.7683 C 0 19.3095 0.655032 21.7015 1.80644 23.7883 V 9.75049 Z"/>

<path d="M 15 2.02222 C 13.7829 2.02222 12.602 2.16921 11.4688 2.43647 V 4.75718 C 12.5907 4.44093 13.7738 4.26721 15 4.26721 C 22.0218 4.26721 27.7153 9.84627 27.7153 16.7305 C 27.7153 19.8307 26.5571 22.6659 24.6464 24.8463 L 24.2838 26.118 L 23.4814 28.9331 C 27.4184 26.2761 30.0023 21.8195 30.0023 16.7705 C 30 8.62355 23.2843 2.02222 15 2.02222 Z" fill="#C28F2C"/>

<path d="M 11.4688 24.4209 H 22.9737 H 23.2253 C 25.1723 22.4209 26.3713 19.7126 26.3713 16.7305 C 26.3713 10.5746 21.2806 5.58569 15 5.58569 C 13.767 5.58569 12.5816 5.78168 11.4688 6.1358 V 24.4209 Z" fill="#C28F2C"/>

<path d="M 10.1088 0 H 1.55029 L 3.16634 3.29844 V 28.7038 L 1.55029 32 H 21.1922 L 22.9737 25.7572 H 10.1088 V 0 Z" fill="#C28F2C"/></svg>