<svg xmlns:xlink="http://www.w3.org/1999/xlink" xmlns="http://www.w3.org/2000/svg" class="" viewBox="0 0 24 24" width="24"  height="24" ><title>reddit</title><path fill="#FFFFFF" d="M14.2 15.3c.1.1.1.2 0 .3-.5.5-1.2.7-2.2.7-1 0-1.8-.2-2.2-.7-.1-.1-.1-.2 0-.3.1-.1.2-.1.3 0 .4.4 1 .6 1.9.6.9 0 1.5-.2 1.9-.6h.3zm-3.4-2.4c0-.5-.4-.9-.9-.9s-.9.4-.9.9.4.9.9.9.9-.4.9-.9zM24 12c0 6.6-5.4 12-12 12S0 18.6 0 12 5.4 0 12 0s12 5.4 12 12zm-5-.1c0-.9-.7-1.5-1.5-1.5-.4 0-.8.2-1.1.4-1.1-.7-2.5-1.1-4.1-1.2l.9-2.7 2.3.5c0 .7.6 1.3 1.3 1.3s1.3-.6 1.3-1.3-.6-1.3-1.3-1.3c-.5 0-1 .3-1.2.8l-2.5-.6c-.1 0-.2 0-.3.1l-1 3c-1.7 0-3.2.5-4.3 1.2-.3-.3-.6-.4-1-.4-.8.1-1.5.8-1.5 1.7 0 .6.3 1.1.8 1.3 0 .2-.1.3-.1.5 0 2.3 2.8 4.1 6.3 4.1s6.3-1.9 6.3-4.1v-.5c.4-.2.7-.7.7-1.3zm-4.9.1c-.5 0-.9.4-.9.9s.4.9.9.9.9-.4.9-.9c.1-.5-.4-.9-.9-.9z"></path></svg>